{
  "accessors": [
    {
      "bufferView": 2,
      "componentType": 5126,
      "count": 3532,
      "max": [
        27.148962020874023,
        7.9668450355529785,
        77.64619445800781
      ],
      "min": [
        -27.14895248413086,
        -8.718652725219727,
        -0.030314000323414803
      ],
      "type": "VEC3"
    },
    {
      "bufferView": 2,
      "byteOffset": 42384,
      "componentType": 5126,
      "count": 3532,
      "max": [
        0.9999620914459229,
        0.9998317360877991,
        0.9989916682243347
      ],
      "min": [
        -0.9994296431541443,
        -1.0,
        -0.9999987483024597
      ],
      "type": "VEC3"
    },
    {
      "bufferView": 1,
      "componentType": 5126,
      "count": 3532,
      "max": [
        0.9984470009803772,
        0.9983879923820496
      ],
      "min": [
        0.001832999987527728,
        0.0014669999945908785
      ],
      "type": "VEC2"
    },
    {
      "bufferView": 0,
      "componentType": 5125,
      "count": 14922,
      "type": "SCALAR"
    },
    {
      "bufferView": 2,
      "byteOffset": 84768,
      "componentType": 5126,
      "count": 43,
      "max": [
        3.157742977142334,
        -3.710010051727295,
        71.56896209716797
      ],
      "min": [
        -3.1542060375213623,
        -6.4113850593566895,
        69.8479995727539
      ],
      "type": "VEC3"
    },
    {
      "bufferView": 2,
      "byteOffset": 85284,
      "componentType": 5126,
      "count": 43,
      "max": [
        0.8917887806892395,
        0.32947713136672974,
        0.5000700354576111
      ],
      "min": [
        -0.9027357697486877,
        -0.9960737824440002,
        -0.9890401363372803
      ],
      "type": "VEC3"
    },
    {
      "bufferView": 1,
      "byteOffset": 28256,
      "componentType": 5126,
      "count": 43,
      "max": [
        0.9771950244903564,
        0.9743729829788208
      ],
      "min": [
        0.022803999483585358,
        0.041909001767635345
      ],
      "type": "VEC2"
    },
    {
      "bufferView": 0,
      "byteOffset": 59688,
      "componentType": 5125,
      "count": 150,
      "type": "SCALAR"
    }
  ],
  "asset": {
    "extras": {
      "author": "3axap (https://sketchfab.com/3axapV)",
      "license": "CC-BY-4.0 (http://creativecommons.org/licenses/by/4.0/)",
      "source": "https://sketchfab.com/3d-models/ct-urban-ed08a88e145846479c389174ef5a1d66",
      "title": "CT urban"
    },
    "generator": "Sketchfab-12.66.0",
    "version": "2.0"
  },
  "bufferViews": [
    {
      "buffer": 0,
      "byteLength": 60288,
      "name": "floatBufferViews",
      "target": 34963
    },
    {
      "buffer": 0,
      "byteLength": 28600,
      "byteOffset": 60288,
      "byteStride": 8,
      "name": "floatBufferViews",
      "target": 34962
    },
    {
      "buffer": 0,
      "byteLength": 85800,
      "byteOffset": 88888,
      "byteStride": 12,
      "name": "floatBufferViews",
      "target": 34962
    }
  ],
  "buffers": [
    {
      "byteLength": 174688,
      "uri": "scene.bin"
    }
  ],
  "images": [
    {
      "uri": "textures/ct_urban_baseColor.png"
    },
    {
      "uri": "textures/ct_urban_metallicRoughness.png"
    },
    {
      "uri": "textures/ct_urban_glass_baseColor.png"
    },
    {
      "uri": "textures/ct_urban_glass_metallicRoughness.png"
    }
  ],
  "materials": [
    {
      "doubleSided": true,
      "name": "ct_urban",
      "pbrMetallicRoughness": {
        "baseColorTexture": {
          "index": 0
        },
        "metallicRoughnessTexture": {
          "index": 1
        }
      }
    },
    {
      "alphaMode": "BLEND",
      "doubleSided": true,
      "name": "ct_urban_glass",
      "pbrMetallicRoughness": {
        "baseColorTexture": {
          "index": 2
        },
        "metallicRoughnessTexture": {
          "index": 3
        }
      }
    }
  ],
  "meshes": [
    {
      "name": "Object_0",
      "primitives": [
        {
          "attributes": {
            "NORMAL": 1,
            "POSITION": 0,
            "TEXCOORD_0": 2
          },
          "indices": 3,
          "material": 0,
          "mode": 4
        }
      ]
    },
    {
      "name": "Object_1",
      "primitives": [
        {
          "attributes": {
            "NORMAL": 5,
            "POSITION": 4,
            "TEXCOORD_0": 6
          },
          "indices": 7,
          "material": 1,
          "mode": 4
        }
      ]
    }
  ],
  "nodes": [
    {
      "children": [
        1
      ],
      "matrix": [
        1.0,
        0.0,
        0.0,
        0.0,
        0.0,
        2.220446049250313e-16,
        -1.0,
        0.0,
        0.0,
        1.0,
        2.220446049250313e-16,
        0.0,
        0.0,
        0.0,
        0.0,
        1.0
      ],
      "name": "Sketchfab_model"
    },
    {
      "children": [
        2,
        3
      ],
      "name": "123123.obj.cleaner.materialmerger.gles"
    },
    {
      "mesh": 0,
      "name": "Object_2"
    },
    {
      "mesh": 1,
      "name": "Object_3"
    }
  ],
  "samplers": [
    {
      "magFilter": 9729,
      "minFilter": 9987,
      "wrapS": 10497,
      "wrapT": 10497
    }
  ],
  "scene": 0,
  "scenes": [
    {
      "name": "Sketchfab_Scene",
      "nodes": [
        0
      ]
    }
  ],
  "textures": [
    {
      "sampler": 0,
      "source": 0
    },
    {
      "sampler": 0,
      "source": 1
    },
    {
      "sampler": 0,
      "source": 2
    },
    {
      "sampler": 0,
      "source": 3
    }
  ]
}
